{"asset":{"version":"2.0","generator":"Blockbench 4.9.4 glTF exporter"},"scenes":[{"nodes":[14],"name":"blockbench_export"}],"scene":0,"nodes":[{"translation":[-0.375,0,0],"name":"layer 1","mesh":0},{"translation":[-0.375,0,0],"name":"layer 2","mesh":1},{"translation":[-0.375,0,0],"name":"layer 3","mesh":2},{"translation":[-0.375,0,0],"name":"layer 4","mesh":3},{"name":"layers_right","children":[0,1,2,3]},{"translation":[-0.375,0,0],"name":"layer 1","mesh":4},{"translation":[-0.375,0,0],"name":"layer 2","mesh":5},{"translation":[-0.375,0,0],"name":"layer 3","mesh":6},{"translation":[-0.375,0,0],"name":"layer 4","mesh":7},{"translation":[0.75,0,0],"name":"layers_left","children":[5,6,7,8]},{"rotation":[0,0,0.7071067811865475,0.7071067811865476],"translation":[-0.375,0,0],"name":"border right","mesh":8},{"rotation":[0,0,0.7071067811865475,0.7071067811865476],"translation":[-0.371875,0,0],"name":"border middle","mesh":9},{"rotation":[0,0,0.7071067811865475,0.7071067811865476],"translation":[-0.375,0,0],"name":"border left","mesh":10},{"name":"root","children":[4,9,10,11,12]},{"children":[13]}],"bufferViews":[{"buffer":0,"byteOffset":0,"byteLength":336,"target":34962,"byteStride":12},{"buffer":0,"byteOffset":336,"byteLength":336,"target":34962,"byteStride":12},{"buffer":0,"byteOffset":672,"byteLength":224,"target":34962,"byteStride":8},{"buffer":0,"byteOffset":896,"byteLength":84,"target":34963},{"buffer":0,"byteOffset":980,"byteLength":336,"target":34962,"byteStride":12},{"buffer":0,"byteOffset":1316,"byteLength":336,"target":34962,"byteStride":12},{"buffer":0,"byteOffset":1652,"byteLength":224,"target":34962,"byteStride":8},{"buffer":0,"byteOffset":1876,"byteLength":84,"target":34963},{"buffer":0,"byteOffset":1960,"byteLength":336,"target":34962,"byteStride":12},{"buffer":0,"byteOffset":2296,"byteLength":336,"target":34962,"byteStride":12},{"buffer":0,"byteOffset":2632,"byteLength":224,"target":34962,"byteStride":8},{"buffer":0,"byteOffset":2856,"byteLength":84,"target":34963},{"buffer":0,"byteOffset":2940,"byteLength":672,"target":34962,"byteStride":12},{"buffer":0,"byteOffset":3612,"byteLength":672,"target":34962,"byteStride":12},{"buffer":0,"byteOffset":4284,"byteLength":448,"target":34962,"byteStride":8},{"buffer":0,"byteOffset":4732,"byteLength":168,"target":34963},{"buffer":0,"byteOffset":4900,"byteLength":336,"target":34962,"byteStride":12},{"buffer":0,"byteOffset":5236,"byteLength":336,"target":34962,"byteStride":12},{"buffer":0,"byteOffset":5572,"byteLength":224,"target":34962,"byteStride":8},{"buffer":0,"byteOffset":5796,"byteLength":84,"target":34963},{"buffer":0,"byteOffset":5880,"byteLength":336,"target":34962,"byteStride":12},{"buffer":0,"byteOffset":6216,"byteLength":336,"target":34962,"byteStride":12},{"buffer":0,"byteOffset":6552,"byteLength":224,"target":34962,"byteStride":8},{"buffer":0,"byteOffset":6776,"byteLength":84,"target":34963},{"buffer":0,"byteOffset":6860,"byteLength":336,"target":34962,"byteStride":12},{"buffer":0,"byteOffset":7196,"byteLength":336,"target":34962,"byteStride":12},{"buffer":0,"byteOffset":7532,"byteLength":224,"target":34962,"byteStride":8},{"buffer":0,"byteOffset":7756,"byteLength":84,"target":34963},{"buffer":0,"byteOffset":7840,"byteLength":672,"target":34962,"byteStride":12},{"buffer":0,"byteOffset":8512,"byteLength":672,"target":34962,"byteStride":12},{"buffer":0,"byteOffset":9184,"byteLength":448,"target":34962,"byteStride":8},{"buffer":0,"byteOffset":9632,"byteLength":168,"target":34963},{"buffer":0,"byteOffset":9800,"byteLength":96,"target":34962,"byteStride":12},{"buffer":0,"byteOffset":9896,"byteLength":96,"target":34962,"byteStride":12},{"buffer":0,"byteOffset":9992,"byteLength":64,"target":34962,"byteStride":8},{"buffer":0,"byteOffset":10056,"byteLength":24,"target":34963},{"buffer":0,"byteOffset":10080,"byteLength":96,"target":34962,"byteStride":12},{"buffer":0,"byteOffset":10176,"byteLength":96,"target":34962,"byteStride":12},{"buffer":0,"byteOffset":10272,"byteLength":64,"target":34962,"byteStride":8},{"buffer":0,"byteOffset":10336,"byteLength":24,"target":34963},{"buffer":0,"byteOffset":10360,"byteLength":96,"target":34962,"byteStride":12},{"buffer":0,"byteOffset":10456,"byteLength":96,"target":34962,"byteStride":12},{"buffer":0,"byteOffset":10552,"byteLength":64,"target":34962,"byteStride":8},{"buffer":0,"byteOffset":10616,"byteLength":24,"target":34963}],"buffers":[{"byteLength":10640,"uri":"data:application/octet-stream;base64,"}],"accessors":[{"bufferView":0,"componentType":5126,"count":28,"max":[0.375,0.25,0.5],"min":[-0.375,0,0.109375],"type":"VEC3"},{"bufferView":1,"componentType":5126,"count":28,"max":[1,1,1],"min":[-1,-1,-1],"type":"VEC3"},{"bufferView":2,"componentType":5126,"count":28,"max":[0.2890625,0.0859375],"min":[0.1953125,0],"type":"VEC2"},{"bufferView":3,"componentType":5123,"count":42,"max":[27],"min":[0],"type":"SCALAR"},{"bufferView":4,"componentType":5126,"count":28,"max":[0.375,0.625,0.5],"min":[-0.375,0.25,0.171875],"type":"VEC3"},{"bufferView":5,"componentType":5126,"count":28,"max":[1,1,1],"min":[-1,-1,-1],"type":"VEC3"},{"bufferView":6,"componentType":5126,"count":28,"max":[0.2890625,0.25],"min":[0,0],"type":"VEC2"},{"bufferView":7,"componentType":5123,"count":42,"max":[27],"min":[0],"type":"SCALAR"},{"bufferView":8,"componentType":5126,"count":28,"max":[0.375,1,0.5],"min":[-0.375,0.625,0.234375],"type":"VEC3"},{"bufferView":9,"componentType":5126,"count":28,"max":[1,1,1],"min":[-1,-1,-1],"type":"VEC3"},{"bufferView":10,"componentType":5126,"count":28,"max":[0.2890625,0.1953125],"min":[0,0],"type":"VEC2"},{"bufferView":11,"componentType":5123,"count":42,"max":[27],"min":[0],"type":"SCALAR"},{"bufferView":12,"componentType":5126,"count":56,"max":[0.375,1.5625,0.5],"min":[-0.375,1,0.3125],"type":"VEC3"},{"bufferView":13,"componentType":5126,"count":56,"max":[1,1,1],"min":[-1,-1,-1],"type":"VEC3"},{"bufferView":14,"componentType":5126,"count":56,"max":[0.2890625,0.1328125],"min":[0,0],"type":"VEC2"},{"bufferView":15,"componentType":5123,"count":84,"max":[55],"min":[0],"type":"SCALAR"},{"bufferView":16,"componentType":5126,"count":28,"max":[0.375,0.25,0.5],"min":[-0.375,0,0.109375],"type":"VEC3"},{"bufferView":17,"componentType":5126,"count":28,"max":[1,1,1],"min":[-1,-1,-1],"type":"VEC3"},{"bufferView":18,"componentType":5126,"count":28,"max":[0.2890625,0.0859375],"min":[0.1953125,0],"type":"VEC2"},{"bufferView":19,"componentType":5123,"count":42,"max":[27],"min":[0],"type":"SCALAR"},{"bufferView":20,"componentType":5126,"count":28,"max":[0.375,0.625,0.5],"min":[-0.375,0.25,0.171875],"type":"VEC3"},{"bufferView":21,"componentType":5126,"count":28,"max":[1,1,1],"min":[-1,-1,-1],"type":"VEC3"},{"bufferView":22,"componentType":5126,"count":28,"max":[0.2890625,0.25],"min":[0,0],"type":"VEC2"},{"bufferView":23,"componentType":5123,"count":42,"max":[27],"min":[0],"type":"SCALAR"},{"bufferView":24,"componentType":5126,"count":28,"max":[0.375,1,0.5],"min":[-0.375,0.625,0.234375],"type":"VEC3"},{"bufferView":25,"componentType":5126,"count":28,"max":[1,1,1],"min":[-1,-1,-1],"type":"VEC3"},{"bufferView":26,"componentType":5126,"count":28,"max":[0.2890625,0.1953125],"min":[0,0],"type":"VEC2"},{"bufferView":27,"componentType":5123,"count":42,"max":[27],"min":[0],"type":"SCALAR"},{"bufferView":28,"componentType":5126,"count":56,"max":[0.375,1.5625,0.5],"min":[-0.375,1,0.3125],"type":"VEC3"},{"bufferView":29,"componentType":5126,"count":56,"max":[1,1,1],"min":[-1,-1,-1],"type":"VEC3"},{"bufferView":30,"componentType":5126,"count":56,"max":[0.2890625,0.1328125],"min":[0,0],"type":"VEC2"},{"bufferView":31,"componentType":5123,"count":84,"max":[55],"min":[0],"type":"SCALAR"},{"bufferView":32,"componentType":5126,"count":8,"max":[1.5,0.37812501192092896,0.5],"min":[0,0.37812501192092896,0],"type":"VEC3"},{"bufferView":33,"componentType":5126,"count":8,"max":[0,1,0],"min":[0,1,0],"type":"VEC3"},{"bufferView":34,"componentType":5126,"count":8,"max":[0.1875,0.0625],"min":[0,0],"type":"VEC2"},{"bufferView":35,"componentType":5123,"count":12,"max":[7],"min":[0],"type":"SCALAR"},{"bufferView":36,"componentType":5126,"count":8,"max":[1.5,-0.37187498807907104,0.5],"min":[0,-0.37187498807907104,0],"type":"VEC3"},{"bufferView":37,"componentType":5126,"count":8,"max":[0,1,0],"min":[0,1,0],"type":"VEC3"},{"bufferView":38,"componentType":5126,"count":8,"max":[0.1875,0.0625],"min":[0,0],"type":"VEC2"},{"bufferView":39,"componentType":5123,"count":12,"max":[7],"min":[0],"type":"SCALAR"},{"bufferView":40,"componentType":5126,"count":8,"max":[1.5,-1.1281249523162842,0.5],"min":[0,-1.1281249523162842,0],"type":"VEC3"},{"bufferView":41,"componentType":5126,"count":8,"max":[0,1,0],"min":[0,1,0],"type":"VEC3"},{"bufferView":42,"componentType":5126,"count":8,"max":[0.1875,0.0625],"min":[0,0],"type":"VEC2"},{"bufferView":43,"componentType":5123,"count":12,"max":[7],"min":[0],"type":"SCALAR"}],"materials":[{"pbrMetallicRoughness":{"metallicFactor":0,"roughnessFactor":1,"baseColorTexture":{"index":0}},"alphaMode":"MASK","alphaCutoff":0.05,"doubleSided":true}],"textures":[{"sampler":0,"source":0}],"samplers":[{"magFilter":9728,"minFilter":9728,"wrapS":33071,"wrapT":33071}],"images":[{"mimeType":"image/png","uri":"data:image/png;base64,"}],"meshes":[{"primitives":[{"mode":4,"attributes":{"POSITION":0,"NORMAL":1,"TEXCOORD_0":2},"indices":3,"material":0}]},{"primitives":[{"mode":4,"attributes":{"POSITION":4,"NORMAL":5,"TEXCOORD_0":6},"indices":7,"material":0}]},{"primitives":[{"mode":4,"attributes":{"POSITION":8,"NORMAL":9,"TEXCOORD_0":10},"indices":11,"material":0}]},{"primitives":[{"mode":4,"attributes":{"POSITION":12,"NORMAL":13,"TEXCOORD_0":14},"indices":15,"material":0}]},{"primitives":[{"mode":4,"attributes":{"POSITION":16,"NORMAL":17,"TEXCOORD_0":18},"indices":19,"material":0}]},{"primitives":[{"mode":4,"attributes":{"POSITION":20,"NORMAL":21,"TEXCOORD_0":22},"indices":23,"material":0}]},{"primitives":[{"mode":4,"attributes":{"POSITION":24,"NORMAL":25,"TEXCOORD_0":26},"indices":27,"material":0}]},{"primitives":[{"mode":4,"attributes":{"POSITION":28,"NORMAL":29,"TEXCOORD_0":30},"indices":31,"material":0}]},{"primitives":[{"mode":4,"attributes":{"POSITION":32,"NORMAL":33,"TEXCOORD_0":34},"indices":35,"material":0}]},{"primitives":[{"mode":4,"attributes":{"POSITION":36,"NORMAL":37,"TEXCOORD_0":38},"indices":39,"material":0}]},{"primitives":[{"mode":4,"attributes":{"POSITION":40,"NORMAL":41,"TEXCOORD_0":42},"indices":43,"material":0}]}]}