{"asset":{"version":"2.0","generator":"Blockbench 4.9.4 glTF exporter"},"scenes":[{"nodes":[10],"name":"blockbench_export"}],"scene":0,"nodes":[{"name":"computer","mesh":0},{"name":"gums2","mesh":1},{"name":"gums1","mesh":2},{"name":"hanging items","mesh":3},{"name":"gum stand","mesh":4},{"name":"snacks","mesh":5},{"name":"snack shelf","mesh":6},{"name":"bags","mesh":7},{"name":"main stand","mesh":8},{"name":"root","children":[0,1,2,3,4,5,6,7,8]},{"children":[9]}],"bufferViews":[{"buffer":0,"byteOffset":0,"byteLength":1248,"target":34962,"byteStride":12},{"buffer":0,"byteOffset":1248,"byteLength":1248,"target":34962,"byteStride":12},{"buffer":0,"byteOffset":2496,"byteLength":832,"target":34962,"byteStride":8},{"buffer":0,"byteOffset":3328,"byteLength":312,"target":34963},{"buffer":0,"byteOffset":3640,"byteLength":288,"target":34962,"byteStride":12},{"buffer":0,"byteOffset":3928,"byteLength":288,"target":34962,"byteStride":12},{"buffer":0,"byteOffset":4216,"byteLength":192,"target":34962,"byteStride":8},{"buffer":0,"byteOffset":4408,"byteLength":72,"target":34963},{"buffer":0,"byteOffset":4480,"byteLength":288,"target":34962,"byteStride":12},{"buffer":0,"byteOffset":4768,"byteLength":288,"target":34962,"byteStride":12},{"buffer":0,"byteOffset":5056,"byteLength":192,"target":34962,"byteStride":8},{"buffer":0,"byteOffset":5248,"byteLength":72,"target":34963},{"buffer":0,"byteOffset":5320,"byteLength":288,"target":34962,"byteStride":12},{"buffer":0,"byteOffset":5608,"byteLength":288,"target":34962,"byteStride":12},{"buffer":0,"byteOffset":5896,"byteLength":192,"target":34962,"byteStride":8},{"buffer":0,"byteOffset":6088,"byteLength":72,"target":34963},{"buffer":0,"byteOffset":6160,"byteLength":1248,"target":34962,"byteStride":12},{"buffer":0,"byteOffset":7408,"byteLength":1248,"target":34962,"byteStride":12},{"buffer":0,"byteOffset":8656,"byteLength":832,"target":34962,"byteStride":8},{"buffer":0,"byteOffset":9488,"byteLength":312,"target":34963},{"buffer":0,"byteOffset":9800,"byteLength":288,"target":34962,"byteStride":12},{"buffer":0,"byteOffset":10088,"byteLength":288,"target":34962,"byteStride":12},{"buffer":0,"byteOffset":10376,"byteLength":192,"target":34962,"byteStride":8},{"buffer":0,"byteOffset":10568,"byteLength":72,"target":34963},{"buffer":0,"byteOffset":10640,"byteLength":1632,"target":34962,"byteStride":12},{"buffer":0,"byteOffset":12272,"byteLength":1632,"target":34962,"byteStride":12},{"buffer":0,"byteOffset":13904,"byteLength":1088,"target":34962,"byteStride":8},{"buffer":0,"byteOffset":14992,"byteLength":408,"target":34963},{"buffer":0,"byteOffset":15400,"byteLength":288,"target":34962,"byteStride":12},{"buffer":0,"byteOffset":15688,"byteLength":288,"target":34962,"byteStride":12},{"buffer":0,"byteOffset":15976,"byteLength":192,"target":34962,"byteStride":8},{"buffer":0,"byteOffset":16168,"byteLength":72,"target":34963},{"buffer":0,"byteOffset":16240,"byteLength":1248,"target":34962,"byteStride":12},{"buffer":0,"byteOffset":17488,"byteLength":1248,"target":34962,"byteStride":12},{"buffer":0,"byteOffset":18736,"byteLength":832,"target":34962,"byteStride":8},{"buffer":0,"byteOffset":19568,"byteLength":312,"target":34963}],"buffers":[{"byteLength":19880,"uri":"data:application/octet-stream;base64,"}],"accessors":[{"bufferView":0,"componentType":5126,"count":104,"max":[-0.6875,1.0090266466140747,-0.9375],"min":[-1,0.6875,-1.125],"type":"VEC3"},{"bufferView":1,"componentType":5126,"count":104,"max":[1,1,1],"min":[-1,-1,-1],"type":"VEC3"},{"bufferView":2,"componentType":5126,"count":104,"max":[1,0.15178126096725464],"min":[0.359375,0],"type":"VEC2"},{"bufferView":3,"componentType":5123,"count":156,"max":[103],"min":[0],"type":"SCALAR"},{"bufferView":4,"componentType":5126,"count":24,"max":[0.4375,1.1875,-0.25],"min":[-0.03125,1,-0.5625],"type":"VEC3"},{"bufferView":5,"componentType":5126,"count":24,"max":[1,1,1],"min":[-1,-1,-1],"type":"VEC3"},{"bufferView":6,"componentType":5126,"count":24,"max":[1,0.375],"min":[0.15625,0],"type":"VEC2"},{"bufferView":7,"componentType":5123,"count":36,"max":[23],"min":[0],"type":"SCALAR"},{"bufferView":8,"componentType":5126,"count":24,"max":[0.4375,0.9375,-0.25],"min":[-0.03125,0.6875,-0.5625],"type":"VEC3"},{"bufferView":9,"componentType":5126,"count":24,"max":[1,1,1],"min":[-1,-1,-1],"type":"VEC3"},{"bufferView":10,"componentType":5126,"count":24,"max":[1,0.28125],"min":[0.15625,0],"type":"VEC2"},{"bufferView":11,"componentType":5123,"count":36,"max":[23],"min":[0],"type":"SCALAR"},{"bufferView":12,"componentType":5126,"count":24,"max":[0.75,1.125,-0.25],"min":[0.5,0.75,-0.5625],"type":"VEC3"},{"bufferView":13,"componentType":5126,"count":24,"max":[1,1,1],"min":[-1,-1,-1],"type":"VEC3"},{"bufferView":14,"componentType":5126,"count":24,"max":[1,0.2265625],"min":[0.28125,0],"type":"VEC2"},{"bufferView":15,"componentType":5123,"count":36,"max":[23],"min":[0],"type":"SCALAR"},{"bufferView":16,"componentType":5126,"count":104,"max":[0.5,1.25,-0.1875],"min":[-0.0625,0,-0.625],"type":"VEC3"},{"bufferView":17,"componentType":5126,"count":104,"max":[1,1,1],"min":[-1,-1,-1],"type":"VEC3"},{"bufferView":18,"componentType":5126,"count":104,"max":[0.2578125,0.234375],"min":[0.1875,0.078125],"type":"VEC2"},{"bufferView":19,"componentType":5123,"count":156,"max":[103],"min":[0],"type":"SCALAR"},{"bufferView":20,"componentType":5126,"count":24,"max":[1,0.5625,-0.1755952388048172],"min":[0.625,0.0625,-1.1875],"type":"VEC3"},{"bufferView":21,"componentType":5126,"count":24,"max":[1,1,0.9994964599609375],"min":[-1,-1,-1],"type":"VEC3"},{"bufferView":22,"componentType":5126,"count":24,"max":[1,0.3203125],"min":[0,0],"type":"VEC2"},{"bufferView":23,"componentType":5123,"count":36,"max":[23],"min":[0],"type":"SCALAR"},{"bufferView":24,"componentType":5126,"count":136,"max":[1.0625,0.625,-0.125],"min":[0.5625,0,-1.25],"type":"VEC3"},{"bufferView":25,"componentType":5126,"count":136,"max":[1,1,1],"min":[-1,-1,-1],"type":"VEC3"},{"bufferView":26,"componentType":5126,"count":136,"max":[0.140625,0.1723077893257141],"min":[0,0.09375],"type":"VEC2"},{"bufferView":27,"componentType":5123,"count":204,"max":[135],"min":[0],"type":"SCALAR"},{"bufferView":28,"componentType":5126,"count":24,"max":[0.4375,0.625,-1.0625],"min":[0.0625,0.1875,-1.125],"type":"VEC3"},{"bufferView":29,"componentType":5126,"count":24,"max":[1,1,1],"min":[-1,-1,-1],"type":"VEC3"},{"bufferView":30,"componentType":5126,"count":24,"max":[0.46875,0.0546875],"min":[0.421875,0],"type":"VEC2"},{"bufferView":31,"componentType":5123,"count":36,"max":[23],"min":[0],"type":"SCALAR"},{"bufferView":32,"componentType":5126,"count":104,"max":[0.5,0.6875,-0.8125],"min":[-1.3125,0,-1.25],"type":"VEC3"},{"bufferView":33,"componentType":5126,"count":104,"max":[1,1,1],"min":[-1,-1,-1],"type":"VEC3"},{"bufferView":34,"componentType":5126,"count":104,"max":[0.40625,0.078125],"min":[0,0],"type":"VEC2"},{"bufferView":35,"componentType":5123,"count":156,"max":[103],"min":[0],"type":"SCALAR"}],"materials":[{"pbrMetallicRoughness":{"metallicFactor":0,"roughnessFactor":1,"baseColorTexture":{"index":0}},"alphaMode":"MASK","alphaCutoff":0.05,"doubleSided":true}],"textures":[{"sampler":0,"source":0}],"samplers":[{"magFilter":9728,"minFilter":9728,"wrapS":33071,"wrapT":33071}],"images":[{"mimeType":"image/png","uri":"data:image/png;base64,"}],"meshes":[{"primitives":[{"mode":4,"attributes":{"POSITION":0,"NORMAL":1,"TEXCOORD_0":2},"indices":3,"material":0}]},{"primitives":[{"mode":4,"attributes":{"POSITION":4,"NORMAL":5,"TEXCOORD_0":6},"indices":7,"material":0}]},{"primitives":[{"mode":4,"attributes":{"POSITION":8,"NORMAL":9,"TEXCOORD_0":10},"indices":11,"material":0}]},{"primitives":[{"mode":4,"attributes":{"POSITION":12,"NORMAL":13,"TEXCOORD_0":14},"indices":15,"material":0}]},{"primitives":[{"mode":4,"attributes":{"POSITION":16,"NORMAL":17,"TEXCOORD_0":18},"indices":19,"material":0}]},{"primitives":[{"mode":4,"attributes":{"POSITION":20,"NORMAL":21,"TEXCOORD_0":22},"indices":23,"material":0}]},{"primitives":[{"mode":4,"attributes":{"POSITION":24,"NORMAL":25,"TEXCOORD_0":26},"indices":27,"material":0}]},{"primitives":[{"mode":4,"attributes":{"POSITION":28,"NORMAL":29,"TEXCOORD_0":30},"indices":31,"material":0}]},{"primitives":[{"mode":4,"attributes":{"POSITION":32,"NORMAL":33,"TEXCOORD_0":34},"indices":35,"material":0}]}]}