{"asset":{"version":"2.0","generator":"Blockbench 4.9.4 glTF exporter"},"scenes":[{"nodes":[2],"name":"blockbench_export"}],"scene":0,"nodes":[{"name":"cart","mesh":0},{"name":"root","children":[0]},{"children":[1]}],"bufferViews":[{"buffer":0,"byteOffset":0,"byteLength":912,"target":34962,"byteStride":12},{"buffer":0,"byteOffset":912,"byteLength":912,"target":34962,"byteStride":12},{"buffer":0,"byteOffset":1824,"byteLength":608,"target":34962,"byteStride":8},{"buffer":0,"byteOffset":2432,"byteLength":228,"target":34963}],"buffers":[{"byteLength":2660,"uri":"data:application/octet-stream;base64,"}],"accessors":[{"bufferView":0,"componentType":5126,"count":76,"max":[0.3125,1.058456301689148,0.679947018623352],"min":[-0.3125,0.002950849710032344,-0.5065982937812805],"type":"VEC3"},{"bufferView":1,"componentType":5126,"count":76,"max":[0.997844934463501,1,0.023386947810649872],"min":[-0.9975207448005676,-0.9976881742477417,-0.9999999403953552],"type":"VEC3"},{"bufferView":2,"componentType":5126,"count":76,"max":[0.330078125,0.53125],"min":[0,0],"type":"VEC2"},{"bufferView":3,"componentType":5123,"count":114,"max":[75],"min":[0],"type":"SCALAR"}],"materials":[{"pbrMetallicRoughness":{"metallicFactor":0,"roughnessFactor":1,"baseColorTexture":{"index":0}},"alphaMode":"MASK","alphaCutoff":0.05,"doubleSided":true}],"textures":[{"sampler":0,"source":0}],"samplers":[{"magFilter":9728,"minFilter":9728,"wrapS":33071,"wrapT":33071}],"images":[{"mimeType":"image/png","uri":"data:image/png;base64,"}],"meshes":[{"primitives":[{"mode":4,"attributes":{"POSITION":0,"NORMAL":1,"TEXCOORD_0":2},"indices":3,"material":0}]}]}