{"asset":{"version":"2.0","generator":"Blockbench 4.9.4 glTF exporter"},"scenes":[{"nodes":[7],"name":"blockbench_export"}],"scene":0,"nodes":[{"name":"vending machine","mesh":0},{"name":"leg4","mesh":1},{"name":"leg1","mesh":2},{"name":"leg2","mesh":3},{"name":"leg3","mesh":4},{"name":"legs","children":[1,2,3,4]},{"name":"root","children":[0,5]},{"children":[6]}],"bufferViews":[{"buffer":0,"byteOffset":0,"byteLength":288,"target":34962,"byteStride":12},{"buffer":0,"byteOffset":288,"byteLength":288,"target":34962,"byteStride":12},{"buffer":0,"byteOffset":576,"byteLength":192,"target":34962,"byteStride":8},{"buffer":0,"byteOffset":768,"byteLength":72,"target":34963},{"buffer":0,"byteOffset":840,"byteLength":216,"target":34962,"byteStride":12},{"buffer":0,"byteOffset":1056,"byteLength":216,"target":34962,"byteStride":12},{"buffer":0,"byteOffset":1272,"byteLength":144,"target":34962,"byteStride":8},{"buffer":0,"byteOffset":1416,"byteLength":48,"target":34963},{"buffer":0,"byteOffset":1464,"byteLength":216,"target":34962,"byteStride":12},{"buffer":0,"byteOffset":1680,"byteLength":216,"target":34962,"byteStride":12},{"buffer":0,"byteOffset":1896,"byteLength":144,"target":34962,"byteStride":8},{"buffer":0,"byteOffset":2040,"byteLength":48,"target":34963},{"buffer":0,"byteOffset":2088,"byteLength":216,"target":34962,"byteStride":12},{"buffer":0,"byteOffset":2304,"byteLength":216,"target":34962,"byteStride":12},{"buffer":0,"byteOffset":2520,"byteLength":144,"target":34962,"byteStride":8},{"buffer":0,"byteOffset":2664,"byteLength":48,"target":34963},{"buffer":0,"byteOffset":2712,"byteLength":216,"target":34962,"byteStride":12},{"buffer":0,"byteOffset":2928,"byteLength":216,"target":34962,"byteStride":12},{"buffer":0,"byteOffset":3144,"byteLength":144,"target":34962,"byteStride":8},{"buffer":0,"byteOffset":3288,"byteLength":48,"target":34963}],"buffers":[{"byteLength":3336,"uri":"data:application/octet-stream;base64,"}],"accessors":[{"bufferView":0,"componentType":5126,"count":24,"max":[0.4375,1.625,0.5],"min":[-0.375,0.0625,-0.5],"type":"VEC3"},{"bufferView":1,"componentType":5126,"count":24,"max":[1,1,1],"min":[-1,-1,-1],"type":"VEC3"},{"bufferView":2,"componentType":5126,"count":24,"max":[0.515625,0.796875],"min":[0,0],"type":"VEC2"},{"bufferView":3,"componentType":5123,"count":36,"max":[23],"min":[0],"type":"SCALAR"},{"bufferView":4,"componentType":5126,"count":18,"max":[-0.1875,0.0625,0.4375],"min":[-0.3125,0,0.3125],"type":"VEC3"},{"bufferView":5,"componentType":5126,"count":18,"max":[1,1,1],"min":[-1,-0.8944271802902222,-0.4472135901451111],"type":"VEC3"},{"bufferView":6,"componentType":5126,"count":18,"max":[0.03125,0.4375],"min":[0,0.40625],"type":"VEC2"},{"bufferView":7,"componentType":5123,"count":24,"max":[17],"min":[0],"type":"SCALAR"},{"bufferView":8,"componentType":5126,"count":18,"max":[-0.1875,0.0625,-0.3125],"min":[-0.3125,0,-0.4375],"type":"VEC3"},{"bufferView":9,"componentType":5126,"count":18,"max":[1,1,0.4472135901451111],"min":[-1,-0.8944271802902222,-1],"type":"VEC3"},{"bufferView":10,"componentType":5126,"count":18,"max":[0.03125,0.4375],"min":[0,0.40625],"type":"VEC2"},{"bufferView":11,"componentType":5123,"count":24,"max":[17],"min":[0],"type":"SCALAR"},{"bufferView":12,"componentType":5126,"count":18,"max":[0.375,0.0625,-0.3125],"min":[0.25,0,-0.4375],"type":"VEC3"},{"bufferView":13,"componentType":5126,"count":18,"max":[1,1,0.4472135901451111],"min":[-1,-0.8944271802902222,-1],"type":"VEC3"},{"bufferView":14,"componentType":5126,"count":18,"max":[0.03125,0.4375],"min":[0,0.40625],"type":"VEC2"},{"bufferView":15,"componentType":5123,"count":24,"max":[17],"min":[0],"type":"SCALAR"},{"bufferView":16,"componentType":5126,"count":18,"max":[0.375,0.0625,0.4375],"min":[0.25,0,0.3125],"type":"VEC3"},{"bufferView":17,"componentType":5126,"count":18,"max":[1,1,1],"min":[-1,-0.8944271802902222,-0.4472135901451111],"type":"VEC3"},{"bufferView":18,"componentType":5126,"count":18,"max":[0.03125,0.4375],"min":[0,0.40625],"type":"VEC2"},{"bufferView":19,"componentType":5123,"count":24,"max":[17],"min":[0],"type":"SCALAR"}],"materials":[{"pbrMetallicRoughness":{"metallicFactor":0,"roughnessFactor":1,"baseColorTexture":{"index":0}},"alphaMode":"MASK","alphaCutoff":0.05,"doubleSided":true}],"textures":[{"sampler":0,"source":0}],"samplers":[{"magFilter":9728,"minFilter":9728,"wrapS":33071,"wrapT":33071}],"images":[{"mimeType":"image/png","uri":"data:image/png;base64,"}],"meshes":[{"primitives":[{"mode":4,"attributes":{"POSITION":0,"NORMAL":1,"TEXCOORD_0":2},"indices":3,"material":0}]},{"primitives":[{"mode":4,"attributes":{"POSITION":4,"NORMAL":5,"TEXCOORD_0":6},"indices":7,"material":0}]},{"primitives":[{"mode":4,"attributes":{"POSITION":8,"NORMAL":9,"TEXCOORD_0":10},"indices":11,"material":0}]},{"primitives":[{"mode":4,"attributes":{"POSITION":12,"NORMAL":13,"TEXCOORD_0":14},"indices":15,"material":0}]},{"primitives":[{"mode":4,"attributes":{"POSITION":16,"NORMAL":17,"TEXCOORD_0":18},"indices":19,"material":0}]}]}